#tb 0: 1/25
#media_type 0: video
#codec_id 0: rawvideo
#dimensions 0: 416x240
#sar 0: 0/1
0,          0,          0,        1,   149760, 0x8edb27d7
0,          1,          1,        1,   149760, 0x3220183c
0,          2,          2,        1,   149760, 0x43a21acc
0,          3,          3,        1,   149760, 0x7bde17f9
0,          4,          4,        1,   149760, 0x98a1cece
0,          5,          5,        1,   149760, 0x3d7b64b9
0,          6,          6,        1,   149760, 0xd9311172
0,          7,          7,        1,   149760, 0x90d192a3
